PathFileType	4	(X/Y/Z)	C:/Users/beibeiliu/ov580/test_trc/User3\sequence.13_training_dense_left.trc
DataRate	CameraRate	NumFrames	NumMarkers	Units	OrigDataRate	OrigDataStartFrame	OrigNumFrames
120	120	17	19	mm	120	1	278
Frame#	Time	ThumbCMC			ThumbMCP			ThumbIP			ThumbTip			IndexMCP			IndexPIP			IndexTip			MiddleMCP			MiddlePIP			MiddleTip			RingMCP			RingPIP			RingTip			PinkyMCP			PinkyPIP			PinkyTip			BackHand1			BackHand2			BackHand3	
		X0	Y0	Z0	X1	Y1	Z1	X2	Y2	Z2	X3	Y3	Z3	X4	Y4	Z4	X5	Y5	Z5	X6	Y6	Z6	X7	Y7	Z7	X8	Y8	Z8	X9	Y9	Z9	X10	Y10	Z10	X11	Y11	Z11	X12	Y12	Z12	X13	Y13	Z13	X14	Y14	Z14	X15	Y15	Z15	X16	Y16	Z16	X17	Y17	Z17	X18	Y18	Z18	
0	0	-148.64	-32.4722	27.8894	-131.074	-41.6833	3.25779	-116.016	-47.7979	-23.866	-117.038	-54.668	-52.2011	-152.204	-9.7024	-49.3827	-142.587	-22.3182	-76.4871	-139.6	-54.7502	-89.7931	-169.728	-8.07707	-59.6053	-164.323	-25.6005	-87.6969	-164.991	-63.5107	-89.7267	-188.198	-15.0543	-58.3824	-186.164	-31.5217	-80.965	-184.986	-64.5786	-80.6709	-212.329	-22.6526	-49.0695	-208.417	-37.4456	-67.9226	-197.751	-65.5147	-67.3449	-201.103	-1.58728	-5.39908	-209.626	-6.26062	28.6192	-173.326	-3.13438	16.488	
1	0.00833333	-150.898	-32.1105	25.5947	-130.892	-40.1489	2.70721	-121.828	-46.2794	-23.6234	-118.465	-54.4661	-50.6577	-153.779	-9.20843	-50.6344	-145.232	-24.0257	-79.8369	-142.895	-54.8181	-89.4796	-169.704	-7.89799	-61.8119	-164.615	-22.823	-86.3064	-166.012	-62.8691	-89.824	-193.993	-14.2796	-57.5365	-186.097	-31.9639	-80.2767	-184.361	-69.101	-78.7129	-211.999	-22.522	-44.4522	-207.272	-41.4058	-69.9529	-201.116	-66.1971	-69.2415	-205.152	-3.42174	-2.31956	-209.327	-4.83594	26.3261	-173.315	-3.62426	14.8634	
2	0.0166667	-151.915	-32.9992	27.4322	-133.41	-40.6854	5.33359	-118.905	-46.9424	-26.4392	-119.414	-54.3287	-45.7502	-148.944	-9.92477	-53.3293	-146.139	-22.5358	-77.8636	-139.296	-50.8922	-88.2676	-173.128	-7.08968	-58.9453	-165.328	-23.8445	-86.4604	-163.191	-61.12	-90.0997	-190.005	-14.0837	-54.2598	-186.43	-36.4281	-81.162	-186.142	-68.3046	-78.0228	-213.28	-21.4044	-46.1804	-208.775	-39.7137	-68.8136	-200.657	-65.1003	-66.4332	-206.131	-2.57955	-2.73706	-209.016	-6.32104	26.0763	-175.791	-4.34151	17.3775	
3	0.025	-147.78	-31.6573	23.5712	-133.682	-40.168	2.26809	-120.494	-47.0392	-24.4914	-117.875	-55.1881	-44.7949	-151.741	-10.1089	-52.99	-141.703	-24.7207	-79.9799	-144.515	-49.2465	-89.0932	-171.012	-7.42002	-57.1652	-165.394	-25.8303	-87.6146	-165.887	-61.8279	-90.4674	-189.113	-14.5018	-56.7821	-187.614	-35.4472	-81.0087	-184.665	-63.797	-80.2439	-209.511	-22.2317	-43.191	-204.853	-37.4263	-68.5276	-200.362	-65.8228	-68.9457	-203.674	-3.30001	-5.38983	-212.388	-5.77724	24.3967	-173.621	-3.43288	14.7325	
4	0.0333333	-152.697	-32.9966	26.594	-132.319	-40.363	0.858126	-117.716	-48.1431	-22.8391	-116.366	-55.8508	-47.404	-148.927	-9.14773	-49.0707	-143.067	-20.5716	-76.8109	-139.299	-48.6591	-89.5242	-167.494	-6.93952	-61.9954	-162.569	-27.9472	-87.4626	-163.107	-60.3354	-91.2215	-193.755	-15.26	-56.5231	-186.089	-36.0308	-81.5759	-186.128	-67.6478	-78.1622	-213.629	-22.4338	-47.0883	-204.509	-36.0008	-66.8935	-200.467	-65.7531	-68.906	-204.269	-1.59263	-4.3108	-206.265	-4.66966	24.4788	-174.05	-4.43016	14.7714	
5	0.0416667	-151.428	-32.0466	23.0907	-133.494	-40.1944	1.95868	-120.265	-46.7219	-26.1061	-116.823	-55.9202	-48.4331	-148.156	-9.44715	-47.4766	-145.849	-23.9053	-78.9836	-140.169	-48.6482	-89.0325	-171.427	-8.34316	-61.3506	-163.147	-25.7595	-86.3064	-166.274	-61.603	-90.5069	-193.912	-15.1949	-56.4123	-188.942	-36.4012	-80.9528	-187.99	-65.3182	-79.1606	-211.468	-21.2982	-45.7611	-205.717	-34.7596	-66.0741	-201.817	-64.8493	-66.9141	-201.405	-2.20353	-0.0644786	-208.809	-5.6173	26.2422	-170.889	-4.56232	17.0163	
6	0.05	-148.788	-31.9554	24.2403	-130.787	-40.9095	1.46993	-121.97	-49.2103	-22.0101	-119.306	-55.7051	-46.3858	-151.723	-9.81408	-52.5394	-142.531	-21.3172	-75.366	-142.616	-48.7893	-88.7298	-172.18	-8.65817	-61.7527	-163.193	-24.4988	-84.5961	-164.502	-64.5322	-89.3228	-189.756	-14.7228	-52.9593	-188.169	-34.2016	-79.0085	-183.679	-68.9974	-76.4139	-213.531	-22.0486	-46.4205	-205.781	-40.6152	-67.8905	-200.654	-66.8044	-65.5617	-200.266	-4.3728	0.496917	-210.391	-5.89502	28.0262	-174.22	-3.14589	18.3498	
7	0.0583333	-149.447	-32.7349	28.6278	-131.608	-42.5251	4.00829	-118.217	-49.0973	-26.0445	-116.874	-57.7799	-47.9391	-150.027	-9.07332	-51.3759	-141.31	-25.3382	-78.4923	-143.138	-49.816	-88.7085	-169.7	-8.78521	-61.3118	-163.737	-26.4478	-84.7353	-162.076	-68.513	-82.9728	-188.748	-14.6093	-54.5812	-190.189	-36.2114	-78.6668	-186.814	-66.9995	-73.0322	-211.871	-21.4189	-49.1187	-205.743	-38.5348	-66.4208	-198.595	-69.6788	-60.1183	-204.954	-3.49375	-0.737325	-209.369	-5.25928	25.8579	-170.535	-2.03459	17.8353	
8	0.0666667	-149.069	-33.2242	24.6858	-132.571	-42.9378	0.0581745	-123.324	-50.2888	-25.6453	-122.647	-57.9855	-52.1595	-149.09	-8.80847	-49.6471	-141.721	-25.5706	-80.1026	-138.231	-55.7734	-87.0961	-168.744	-7.50598	-58.7269	-165.635	-30.5951	-86.551	-165.057	-66.6658	-78.1307	-189.338	-14.568	-57.59	-188.798	-37.157	-78.4572	-182.919	-68.7141	-65.2171	-212.713	-21.4875	-46.0037	-205.32	-39.4293	-66.3011	-199.413	-69.5822	-56.6302	-200.939	-3.00423	-3.03448	-209.631	-5.58349	27.508	-171.639	-4.13927	17.2571	
9	0.075	-151.083	-32.9453	25.2151	-129.082	-44.7415	-0.182088	-119.621	-52.9325	-25.2971	-126.743	-60.4865	-49.2656	-147.309	-8.5712	-51.2068	-143.919	-20.6413	-78.3244	-141.19	-51.5184	-88.9927	-166.097	-7.39677	-61.5734	-161.083	-29.9557	-85.4609	-164.549	-65.3488	-71.6007	-184.741	-14.8196	-58.9509	-188.815	-38.2682	-77.8645	-184.345	-67.2793	-58.8264	-207.354	-21.4513	-45.0743	-203.867	-44.1845	-65.7485	-197.317	-67.7996	-51.057	-202.722	-1.3986	-3.90728	-207.711	-2.8377	22.7242	-169.923	-2.95958	17.4563	
10	0.0833333	-148.069	-31.3135	23.3728	-131.452	-44.1007	-0.521276	-123.588	-53.5066	-28.7019	-129.172	-61.5248	-54.1125	-149.954	-7.14889	-52.1265	-141.736	-18.4119	-78.7432	-141.824	-49.5343	-90.509	-166.969	-8.43218	-63.7611	-162.122	-31.7167	-83.0979	-168.56	-64.2989	-63.246	-190.967	-17.2352	-58.3242	-187.661	-42.5111	-74.6837	-182.707	-67.4626	-48.7683	-206.392	-22.048	-45.742	-201.802	-45.3089	-64.6352	-196.73	-66.6109	-45.3357	-202.123	-0.792413	-3.96004	-206.449	-3.0335	21.4361	-171.311	-0.777247	15.7302	
11	0.0916667	-152.216	-31.6311	25.5726	-129.89	-44.9709	0.486391	-124.282	-54.017	-28.5614	-136.295	-60.5787	-51.2665	-148.888	-3.52422	-50.9476	-142.181	-13.507	-79.9767	-140.874	-37.1974	-93.363	-167.522	-9.39501	-60.559	-164.35	-37.2196	-80.5817	-167.554	-64.5182	-49.9041	-189.487	-18.2162	-55.702	-183.676	-45.0821	-70.4712	-184.356	-65.1477	-42.7753	-202.785	-22.965	-49.916	-199.54	-44.4467	-62.0049	-197.559	-67.0603	-37.776	-201.609	1.65467	-5.52606	-209.343	-1.33686	23.3435	-168.272	-1.39696	14.8317	
12	0.1	-151.57	-28.8003	22.0942	-136.603	-43.5847	-1.18646	-127.722	-54.7921	-30.0584	-140.112	-60.8508	-54.2027	-147.489	0.335153	-49.8306	-139.37	-4.74509	-77.5835	-137.547	-23.5558	-96.3126	-164.422	-11.6136	-61.3232	-162.897	-42.0581	-75.2173	-167.707	-61.7401	-44.3447	-189.464	-19.7897	-56.8193	-180.963	-50.4173	-64.5472	-182.409	-61.3394	-33.5581	-206.992	-22.9904	-46.5819	-200.115	-45.7705	-60.0903	-194.68	-64.7916	-32.4828	-196.741	0.638741	-5.79149	-206.9	-1.48497	26.4352	-170.673	-0.692061	17.4279	
13	0.108333	-150.427	-29.4789	26.4999	-132.575	-43.3616	-2.50986	-130.197	-52.8123	-32.4497	-147.311	-59.853	-54.0469	-151.092	1.86895	-45.4156	-141.665	3.26829	-72.7467	-135.882	-10.6159	-100.938	-164.917	-13.3952	-62.4824	-160.103	-44.6409	-70.5629	-165.303	-58.9197	-36.6511	-185.489	-22.3083	-56.8438	-182.469	-50.2303	-61.5187	-181.172	-58.6975	-28.6696	-201.811	-23.3626	-49.1459	-197.505	-50.8037	-55.2052	-193.039	-60.9988	-28.4698	-197.874	1.30978	-5.6663	-206.551	1.45807	24.5196	-171.221	3.12744	20.0564	
14	0.116667	-148.366	-26.2456	26.2053	-133.104	-42.3355	0.939955	-130.183	-53.8885	-29.5477	-149.291	-59.4353	-50.1999	-151.04	4.37424	-48.118	-143.241	6.1735	-72.7424	-136.278	0.701982	-99.3348	-164.373	-13.7999	-58.6701	-159.024	-45.4108	-67.778	-168.528	-54.5053	-27.6911	-185.253	-23.8134	-54.9377	-182.124	-54.1489	-55.8292	-180.392	-56.5234	-24.5527	-205.897	-25.6399	-50.1262	-199.162	-50.2219	-55.2001	-195.076	-59.6311	-21.5852	-202.998	3.20493	-3.95553	-206.056	0.249526	23.7438	-172.408	4.48596	16.6725	
15	0.125	-148.254	-25.6549	25.1622	-134.5	-41.7245	-2.16435	-131.685	-53.4061	-33.7535	-149.332	-62.3077	-49.5318	-149.13	5.50142	-46.4293	-140.282	9.48245	-71.7999	-139.484	9.69743	-101.02	-167.759	-14.159	-58.9282	-158.963	-48.9826	-64.4516	-166.637	-54.6889	-27.8655	-187.123	-23.8282	-53.6429	-181.201	-53.7557	-54.1254	-182.555	-54.2896	-20.5919	-206.923	-26.4895	-48.8239	-196.772	-51.2122	-51.5734	-192.582	-56.534	-20.3665	-199.517	3.39108	-6.6987	-206.168	2.28909	24.2273	-169.384	7.68542	14.096	
16	0.133333	-147.06	-23.8886	26.2844	-132.604	-41.3427	-5.03151	-132.771	-53.4316	-30.7059	-153.61	-60.0944	-51.5654	-150.873	6.00828	-44.8785	-145.534	10.8775	-74.5141	-141.855	14.6766	-97.1195	-169.748	-14.8194	-57.8673	-163.688	-48.099	-65.3365	-168.089	-53.1547	-27.4603	-183.603	-25.5724	-53.1496	-183.249	-56.3792	-50.4865	-181.965	-50.9801	-15.1901	-204.608	-28.2935	-48.1881	-197.2	-52.3438	-49.2899	-193.742	-55.062	-19.6037	-200.728	4.6569	-3.03528	-204.484	5.26014	22.5426	-170.684	8.52344	12.6183	
